<?xml version="1.0" encoding="UTF-8"?>
<svg id="w_1880_画像" data-name="w=1880 画像" xmlns="http://www.w3.org/2000/svg" viewBox="0 0 327.84 112.62">
  <defs>
    <style>
      .cls-1 {
        fill: #fff;
      }
    </style>
  </defs>
  <path class="cls-1" d="M187.52,16.74c.7,1.31.78,2.59,1.26,4.29,1.55,5.52,4.84,11.84,6.77,18.43.44,1.5,1.75,5.94,1.81,7.21.03.79-.64,2.07-1.45,1.57-.14-.09-.1-.68-.47-.75-.22-.04-.57.27-1.05.06-1-.43-3.27-4.81-3.69-5.95-.23-.64-.19-2.14-.36-2.61-.13-.36-1.42-2.43-1.67-2.55-1.53-.75-2.68.59-4.05.76-2.31.29-5.1-.27-7.47.04l-.57.63c-1.92,4.5-3.67,8.7-4.4,13.6-.23,1.57-.15,3.5-.34,5.07-.05.45-.24.91-.6.44v-1.5s-.6.3-.6.3l.32-4.93-.89-.18-.03-1.48c-.53-.04-1.13.09-1.64-.01-2.87-.61-12.08-8.86-15.63-10.79-.25-.14-.31-.41-.76-.28.46,1.16-.83,2.14-.9,2.86-.05.58.34,1.47.3,2.38-.1,2.34-1.26,6.4-2.05,8.47-.23.61.35,1.51-.66,1.29-.41-1.03-.1-2.47-.37-3.39-.11-.37-.61-.65-.77-1.03-1-2.46.21-5.81-.66-8.33l.89-.15c.16-1.51-.36-2.83-.3-4.34.1-2.46,1.44-5.21,1.76-7.84.25-2.06.05-8.73.92-10.1.18-.28.78-.31.89-.7.29-.94-1.18-3.28,1.4-3.69,3.15-.5,6.1.71,8.64,2.43,1.3.88,4.86,3.9,5.25,5.25.06.21.3,3.38.27,3.56-.05.3-.66.36-.83.63-.36.56-.26,1.75-.61,2.62-.23.58-2.62,3.26-2.37,3.47l10.17.26c2.02-7.19,6.6-13.02,10-19.55.72-1.7,3.1-.83,3.83.28.44.67.27,1.53.42,2.29.1.52.23,1.87.28,1.96ZM153.8,30.6c.48.52,10.08-5.98,8.14-10.37-.45-1.03-4.52-2.35-5.67-2.46-1.6-.15-.87,3.78-1,5.16-.11,1.13-1.79,7.32-1.46,7.68ZM177.83,32.4h8.56c1-1.08-.54-3.12-.91-4.19-.33-.98-1.75-6.54-2.39-6.59-1.44.45-.82,1.39-1.22,2.37-.45,1.11-2.42,2.94-3.11,4.39-.58,1.21-1.04,2.66-.94,4.01ZM170.09,40.56c.09-.14.55-.17.67-.36.42-.64.23-3-.64-3.27-.34-.1-3.39.35-4.45.26-1.34-.11-2.74-.65-4.06-.89-.16,2.03,1.59,1.8,2.69,2.56,1.62,1.12,3.35,3.47,5.28,4.03.91.26.16-1.77.51-2.33Z"/>
  <path class="cls-1" d="M263.31,31.2c-1.12.35.28,6.16-.15,7.35.03.5.45.79.89.93,2.24.69,7.62-2.56,10.15-3.1,2.24-.48,4.64-.18,6.83-.98.96,3.72-3.25,5.78-5.95,7.25-5.01,2.73-10.57,4.33-15.79,6.58l-.49,2.97c-.81.11-.33-.5-.31-.9.21-2.94.1-3.81-3.15-4.2.57-1.16-.93-1.41-.6-2.69l1.19-.14c-1.15-2.21-.41-3.4-.08-5.49s1.43-5.13,1.56-6.85c.09-1.22-.39-2.21-.27-3.41l.9.3c-1.05-2.79.78-12.97,3.01-14.53,1.27-.89,1.91-.16,3.14-.14,3.66.06,15.44-.66,17.98.65,2.14,1.1,1.56,3.68-.46,4.51-.71.29-1.62.09-1.97.29-.15.09-.16.66-.55.79s-3.17.32-3.86.36c-3.27.17-6.52-.27-9.78-.31l.3.89h-2.1s.29,3.47.29,3.47c1.4-.04,6.97-.55,7.82-.02.3.19.37.89.8,1.02.65.2,1.69-.76,2.98.01.85.51,1,2.2.58,3.02-.35.69-1.09.43-1.57.68-.17.09-.18.61-.58.76-.53.2-5.63.95-6.26.95h-4.51Z"/>
  <path class="cls-1" d="M75.63,13.58c.07.05.03.53.23.56,3.04-.77,6.4.9,9.43,1.63,1.94.47,4.69.6,6.39,1.11,1.55.47,2.08,2.03,1.14,3.4-.99-.39-1.45.38-2.27.46s-1.59-.35-2.4-.35c-3.41.02-6.9.78-10.37.01.33,1.44-1.09,4.84.2,5.65,1.1.69,2.19-.08,3.29-.22,2.01-.26,3.74-.19,5.67-.32,2.17-.14,4.32-2.21,5.81,1.09-.42.9-.78,2.52-1.76,2.95-.48.21-.99.06-1.41.24-.1.04-.16.62-.65.68s-.8-.38-1.32-.38c-2.88,0-6.91,2.09-10.12,1.43.23,1.09-.83,1.98-.91,2.86-.06.71.35,1.35.31,2.06-.06.98-1.04,5.43-.77,5.86.26.41.43.24.77.17,1.8-.34,4.03-1.22,5.93-1.59,3.72-.74,7.52-1.41,11.33-1.28l.15.6c-1.21.32-1.89,1.63-2.86,2.4-3.82,3.03-8.66,4.29-12.77,6.75-3.66,2.2-3.17,3.76-4.42,7.29-.17.48.16.8-.68.66.39-2.66.99-4.5-1.2-6.45-1.37-1.22-2.77-1.17-2.72-3.58.07-3.56.3-9.47.9-12.92.14-.78.88-.5.94-1.19.09-1.01-.36-2.8-.33-4.2.07-2.91.66-7.85,1.29-10.71.15-.67.96-3.46,1.27-3.83.16-.19,1.7-.98,1.89-.85Z"/>
  <path class="cls-1" d="M59.12,15.64c-2.05.44-4.81,1.61-5.98,3.41-1.01,1.56-2.52,4.96-3.21,6.69-.63,1.57-.22,7.46.42,8.99.23.55,1.55.87,1.67,1.8l4.86.02.79-2.66-.9.3c.28-1.38-1.24-1.01-2.22-1.54-1.44-.78-2.35-2.55-.95-3.86,1.02-.95,9.8-3.6,11.5-3.81,1.8-.23,3.45-.08,5.04.81l.28,3.33-3.1,1.68c-.41,1.56-.03,4.4-.75,5.7-2.07,3.72-1.08,6.35-1.77,10.37-.27,1.55-1.57,2.72-1.9,3.8-.29.96.12,3.56-1.58,1.91l-1.26-9.09c-2.23.71-3.53.9-3,3.6l-.6-.6-.9.6-.3-2.4-.92.18.02,2.82c-1.44-1.25-3.3-.22-3-2.7l1.33,1.19c2.59-1.66-.07-4.44-1.93-2.39-.08-1.13-1.12-1.89-1.75-2.91-5.1-8.21-5.81-13.29-1.01-21.88,2.4-4.3,6.32-9.21,11.9-8.18,2.76.51,8.25,8.45,2.87,9.43-1.8-.64-1.43-1.91-1.96-2.84-.26-.45-1.66-.79-1.69-1.78ZM58.26,36.3c1.49.12,2.08-1.86,2.58-2.98l-.33-.61-1.92.33-.34,3.26Z"/>
  <path class="cls-1" d="M148.39,98.67c-.37.49-.55,0-.6-.44-.19-1.49.19-3.32,0-4.81-.12-.99-.74-1.74-.88-2.72-.8-5.55-.09-14.96.58-20.66.13-1.16,1.22-7.82,1.85-8.2,1.98-.52,1.63.88,2.36,1.9,1.69,2.35,4.97,5.79,7.06,7.95,2.97,3.07,6.06,5.64,9.32,8.38.89.02.03-5.26.14-6.15.13-1.02.75-1.56.89-2.41.15-.96-.3-3.77.31-4.19.32-.22.99-.03,1.36-.44.67-.74.14-2.71.9-3.6.62-.73.66.7.9.6l.75-1.2c-.06,3.06.46,6.08.32,9.16-.18,3.9-1.57,8.55-1.51,12.28.02,1.19.63,2.61.63,3.9,0,1.94-1.34,3.51-.63,5.55-.42.05-.93-.11-1.31,0-.34.09.05.76-.64.61-.27-.06-.03-.49-.36-.6s-.87.03-1.31-.14c-1.05-.41-3.04-3.58-4.04-4.67l-11.42-11.4c-.5-.03-.68.33-.76.76-.55,3.26-.07,6.68-.74,10.05-.52,2.65-1.87,4.65-2.57,7.18l-.6-.9v4.2Z"/>
  <path class="cls-1" d="M98.22,51.59l-.73-6.01c-2.2-3.3-2.22-9.38-1.16-13.12.34-1.21,1.67-3.16,1.85-4.18s-.69-2.17-.5-2.87c.1-.39.7-.62.82-1.02.15-.51-.32-1.9-.23-2.9s1.29-6.17,1.71-6.99c.69-1.32,1.83-1.59,3.2-1.86.48.11.35.96.53,1.11.23.2,1.04-.05,1.47.48.4.49.2,1.49.49,2.21.94,2.31,3.51,6.88,4.83,9.27.37.67,1.95,4.09,2.75,3.39-.76-1.69,0-3.36.01-4.93.02-2.43-.67-6.26-.24-8.34.1-.47,1.59-3.06,1.93-3.17,3.9-1.32,1.98,4.31,1.89,6.09-.35,7.26.48,14.62-.33,21.86-.31,2.78-1.3,5.47-1.16,8.29h-.9s-.15-3.91-.15-3.91c-5.42-2.7-7.81-9.3-11.13-14.08-.51-.1-.64.37-.73.76-.53,2.29-1.1,4.47-1.67,6.73-.51,2.02-.48,4.5-1.51,6.28-.18.31-1.04.97-1.04,1.06v5.85Z"/>
  <path class="cls-1" d="M255.32,9.65c.08.08,0,.61.18.85.34.46,1.28.27,1.72,1.29,1.11,2.55-2.04,7.7-3.09,10.26-.34.84-.5,2.1-.8,2.86-.47,1.23-1.92,2.42-1.6,4.2l-.9-.3c.43,2.03-1.08,2.86-1.86,4.6-1.99,4.45-3.83,8.93-5.8,13.4-.68,1.54-.21,2.8-2.13,2.98l-.15,1.2-2.81.34c-.08-.89-1.05-1.4-1.25-1.83s.27-.95.13-1.14c-.09-.13-.6-.08-.81-.55-.8-1.81-.58-7.54-1.04-10.06-1.02-5.56-4.11-11.18-4.12-17.02l.75.3c.25-.89.27-2.07-.06-2.94-.15-.4-.87-.39-.93-1.17-.15-1.78,1.1-5.28,3.38-4.91,1.18.19.59,1.34.83,2.2.35,1.24,1.44,2.71,1.67,4.03.78,4.51,2.3,9.17,3.6,13.5.3,1.01.28,2.14.83,3.07.6-.61,1.27-1.13,1.71-1.89,3.58-6.01,5.56-15.27,9.3-21,.4-.61,2.37-3.08,3.23-2.27Z"/>
  <path class="cls-1" d="M217.19,72.88c2.47-.05,4.89.47,7.37.31,1.79-.12,7.57-1.96,7.38,1.04-.13,2.02-2.35,1.56-3.69,2.04-2.04.74-3.47,1.78-5.81,2-1.16.11-4.53-.38-5.11.6l-.77,10.65.31,1.22c1.12.79,12.95-2.23,15.24-2.55.53-.08,1.07.28,1.42.22s.59-.72,1.25-.84c.93-.17,2.32.3,2.54,1.35-1.44,1.12-2.95,2.09-4.54,2.97-3.08,1.69-9.01,3.7-11.49,5.63-1.26.98-2.13,4.86-3.95,2.05l-1.25,1.17c-1.02.72-4.17-4.02-4.23-4.35-.11-.54.48-1.71.5-2.4.04-1.18-.55-2.91-.58-4.15-.18-5.97-.31-13.29.35-19.16.27-2.43.67-7.34,3.2-8.2s11.31-1.19,14-.94c2.47.23,5.1.57,2.61,3.12-1.52,1.56-1.84.94-3.41,1.4-.39.12-.72.66-1.24.86-3.02,1.16-7.81.26-11.1.91-.58.19-.93,2.6-.64,3.26l1.65-2.4v4.2Z"/>
  <path class="cls-1" d="M183.24,69.73c-.09.89-1.19,3.99-1.17,4.2.03.26.55.54.86.44.87-2.32,3.27-4.49,5.11-6.15,2.37-2.14,9.77-7.99,12.77-7.95.81.01.4,1.35.67,1.93-4.39,5.58-8.81,11.11-14.19,15.77-.55.57-.99,1.33-.6,2.1l9.11,11.61c2.93,4.4.69,6.09-3.4,3.09-1.71-1.25-7.94-8.12-8.99-9.92-.48-.83.06-1.75-1.68-1.47.49,2.87-.88,5.81-.92,8.54-.02,1.36.43,2.42.29,3.87-.26,2.54-2.76,4.82-1.47,7.68-1.86.22-.63-1.42-.9-2.7l-.6.3c.33-3.24-1.27-6.26-1.52-9.44-.4-5.21.88-20.05,2.2-25.11.54-2.07.99-1.71,1.63-2.72.22-.35-.02-.9.51-1.44s1.61-.52,2.28-.88c-.19,2.66.25,5.63,0,8.25Z"/>
  <path class="cls-1" d="M140.2,27.53c-.64.65-5.36,1.95-6.45,2.1-1.73.25-3.07-.37-4.74-.23-5.11.42-1.65,5.81-2.73,8.98l.35.6c1.07-.2,2.16-.39,3.21-.67,3.56-.94,8.27-2.44,12.06-1.99.37.04,1.96.34,1.98.71-.3.43-.45.86-.91,1.18-1.58,1.09-4.52,2.69-6.29,3.62-3.85,2.04-8,3.43-12.03,5.09-.64.53.16,5.33-1.8,6.15.36-2.91-.86-5.41-1.2-8.25-1.15-9.6,1.19-18.03,1.8-27.29.06-.85-.41-1.97-.17-2.52,1.06-2.41,4.46-.68,6.03-.6.87.05,1.59-.35,2.38-.33,1.71.06,9.89,1.6,10.98,2.56.68.6-.83,1.89-1.35,2.25-1.39.97-3.72,1.43-5.4,1.51-3.37.16-10.27-2.13-9.43,3.69l.45.45c2.86.27,11.17-1.3,13.17.95.48.54.61,1.48.08,2.01Z"/>
  <path class="cls-1" d="M142.95,78.23c-.1.14-.59.15-.72.33-.17.22.21.74.15,1.05-.37,1.88-1.84,5.5-2.94,7.26-3.18,5.07-8.47,6.1-13.54,2.92-2.81-1.76-2.63-2.98-3.97-5.58-.77-1.49-.19-.84-.24-2.49-.05-1.43-.59-3.12-.32-4.5.13-.63.72-.9.92-1.48.97-2.76,1.5-5.71,2.59-8.81.96-2.72,1.29-6.21,3.84-7.87.58,0,2.03,1.63,1.91,2.22-.06.28-.68.69-.88,1.22-.68,1.79-1.11,4.19-1.7,6.1-1.2,3.93-3.37,8.37-2.23,12.55s6.47,6.04,9.49,2.48c4.1-4.84,4.65-16.65,7.07-22.62.42-1.04,1.24-2.08,2.31-2.5.47-.1.64.33.71.71.16.98.46,5.16.3,5.99-.14.67-.77.88-.85,1.26-.18.78-.17,3.06-.37,4.12-.42,2.25-1.36,4.36-1.69,6.37-.06.38.37.99.18,1.25Z"/>
  <path class="cls-1" d="M222,15.91c-.74-.14-.54.74-.9,1.04-.64.55-6.13,2.82-7.15,3.07-1.42.35-2.86.27-4.23.73.07,2.47-.8,4.83-.96,7.29-.28,4.39.31,9.11,0,13.5-.17,2.41-1.2,5.07-1.03,7.33.11,1.49-.62.09-1.26-.23-.6-.3-1.25-.43-1.85-.7.06-1.08-.79-1.88-.94-2.81-.47-2.91-.27-11.22-.03-14.38.19-2.51,1.28-5.03.91-7.63-1,.4-1.68-1.87-3.14-1.82-.09,0-.33,1.07-1.37.62l.3,1.19-1.8.6v-1.5c-4.68.29-7.07-3.39-1.51-5.25s12.85-2.23,18.5-3.76c1.4.27,3.58.1,4.66,1.04.38.33.51.86.88,1.19.19.17.88-.15.9.48Z"/>
  <path class="cls-1" d="M107.94,92.48c-.49.23-2.27,1.36-2.64,1.4-3.02.37-5.57-.54-7.84-2.41s-3.63-3.99-3.01-6.92c1.06-5.04,5.87,2.13,7.4,3.14,3.51,2.34,6.75-1.39,7.7-4.56,2.18-7.28.88-16.93,4.72-22.88.27-.41.28-1.09.56-1.39.65-.72,2.5-.59,3.4-.9.18.63,1.16,1.86,1.28,2.24.47,1.53-2.19,9.35-2.57,11.71-1.09,6.93-1.7,17.13-8.99,20.57Z"/>
  <path class="cls-1" d="M224.1,45.3l-.59-.31.25,1.92-.85.48v-3.9s-.6.3-.6.3c.09-1.01-.59-1.72-.77-2.68-.67-3.52,1.28-20.16,2.06-24.37.44-2.42,2.11-8.47,4.86-3.82,1.16,1.95,0,2.3-.35,3.82-1.82,7.65-.68,16.93-1.91,24.78-.31,1.99-1.85,2.03-2.08,3.78Z"/>
  <path class="cls-1" d="M208.91,63.46c.09.14.43.05.49.56.43,3.46-.86,5.93-1.19,9.05-.14,1.37.1,2.81-.05,4.14-.1.87-.78,1.14-.51,2.34.38,1.75-.1.67-.25,1.56-.12.73.45,2.47.48,3.32.13,3.87-.42,7.25-.94,11.05l-.44.47c-1.09.36-1.93-1.01-2.28-1.87-.96-2.34-1.19-10.38-.86-12.97.12-.94.86-1.36.91-2.1s-.66-1.66-.62-2.06c.03-.25.62-.24.77-.47.54-.81-.07-4.88.13-6.14l.92-.17.34-7c.19-.55,2.25-.98,2.68-.66.17.13.24.65.41.95Z"/>
</svg>